<svg width="205" height="205" viewBox="0 0 205 205" fill="none" xmlns="http://www.w3.org/2000/svg">
<path d="M204.036 121.752C203.28 119.272 201.741 117.104 199.65 115.572C197.559 114.04 195.028 113.226 192.436 113.252C191.312 113.288 190.2 113.491 189.136 113.852C175.507 117.593 161.132 117.656 147.471 114.037C133.81 110.417 121.352 103.243 111.364 93.2451C101.376 83.247 94.2145 70.7815 90.6088 57.117C87.003 43.4524 87.0813 29.0766 90.8357 15.4521C91.0667 14.5354 91.2008 13.5969 91.2357 12.6521C91.3754 10.1482 90.727 7.66347 89.3818 5.54699C88.0366 3.43052 86.0621 1.78867 83.7357 0.852136C81.2136 -0.125757 78.4437 -0.266006 75.8357 0.452135C58.3643 5.36724 42.4834 14.769 29.7711 27.7231C17.0589 40.6772 7.95813 56.7325 3.37317 74.2935C-1.21178 91.8544 -1.12122 110.31 3.63585 127.825C8.39291 145.34 17.6508 161.305 30.4896 174.134C43.3283 186.962 59.3008 196.208 76.8196 200.951C94.3384 205.695 112.794 205.771 130.351 201.172C147.908 196.574 163.957 187.46 176.901 174.738C189.845 162.016 199.234 146.127 204.136 128.652C204.75 126.388 204.716 123.997 204.036 121.752ZM103.936 180.652C86.2958 180.675 69.1427 174.868 55.1453 164.132C41.1479 153.397 31.0911 138.337 26.5395 121.294C21.988 104.252 23.1969 86.1823 29.9782 69.8979C36.7596 53.6134 48.733 40.0269 64.0357 31.2521C63.3045 45.7988 65.631 60.3372 70.8651 73.9292C76.0993 87.5213 84.1248 99.865 94.4238 110.164C104.723 120.463 117.067 128.489 130.659 133.723C144.251 138.957 158.789 141.283 173.336 140.552C166.286 152.722 156.167 162.83 143.989 169.867C131.811 176.903 118 180.622 103.936 180.652Z" fill="black"/>
</svg>
