<svg width="256" height="256" viewBox="0 0 256 256" fill="none" xmlns="http://www.w3.org/2000/svg">
<path d="M128 56C113.76 56 99.8393 60.2227 87.9989 68.1342C76.1586 76.0456 66.9302 87.2905 61.4807 100.447C56.0312 113.603 54.6053 128.08 57.3835 142.047C60.1616 156.013 67.0189 168.842 77.0883 178.912C87.1577 188.981 99.9869 195.838 113.953 198.617C127.92 201.395 142.397 199.969 155.553 194.519C168.709 189.07 179.954 179.841 187.866 168.001C195.777 156.161 200 142.24 200 128C199.974 108.913 192.379 90.6144 178.882 77.1175C165.386 63.6206 147.087 56.0265 128 56ZM128 176C118.506 176 109.226 173.185 101.333 167.911C93.4391 162.636 87.2868 155.14 83.6538 146.369C80.0208 137.598 79.0702 127.947 80.9223 118.636C82.7744 109.325 87.346 100.772 94.0589 94.0589C100.772 87.346 109.325 82.7744 118.636 80.9223C127.947 79.0702 137.598 80.0208 146.369 83.6538C155.14 87.2868 162.636 93.4391 167.911 101.333C173.185 109.226 176 118.506 176 128C176 140.73 170.943 152.939 161.941 161.941C152.939 170.943 140.73 176 128 176ZM116 28V12C116 8.8174 117.264 5.76516 119.515 3.51472C121.765 1.26428 124.817 0 128 0C131.183 0 134.235 1.26428 136.485 3.51472C138.736 5.76516 140 8.8174 140 12V28C140 31.1826 138.736 34.2348 136.485 36.4853C134.235 38.7357 131.183 40 128 40C124.817 40 121.765 38.7357 119.515 36.4853C117.264 34.2348 116 31.1826 116 28ZM190.2 65.8C189.081 64.6852 188.194 63.3604 187.588 61.9018C186.982 60.4432 186.671 58.8794 186.671 57.3C186.671 55.7206 186.982 54.1568 187.588 52.6982C188.194 51.2396 189.081 49.9148 190.2 48.8L201.5 37.5C203.754 35.2457 206.812 33.9792 210 33.9792C213.188 33.9792 216.246 35.2457 218.5 37.5C220.754 39.7543 222.021 42.8119 222.021 46C222.021 49.1881 220.754 52.2457 218.5 54.5L207.2 65.8C206.083 66.9134 204.757 67.7956 203.298 68.3962C201.84 68.9967 200.277 69.3039 198.7 69.3C195.519 69.2862 192.469 68.0303 190.2 65.8ZM256 128C256 131.183 254.736 134.235 252.485 136.485C250.235 138.736 247.183 140 244 140H228C224.817 140 221.765 138.736 219.515 136.485C217.264 134.235 216 131.183 216 128C216 124.817 217.264 121.765 219.515 119.515C221.765 117.264 224.817 116 228 116H244C247.183 116 250.235 117.264 252.485 119.515C254.736 121.765 256 124.817 256 128ZM218.5 201.5C219.619 202.615 220.506 203.94 221.112 205.398C221.718 206.857 222.029 208.421 222.029 210C222.029 211.579 221.718 213.143 221.112 214.602C220.506 216.06 219.619 217.385 218.5 218.5C217.396 219.632 216.073 220.526 214.611 221.128C213.15 221.73 211.581 222.027 210 222C208.423 222.004 206.86 221.697 205.402 221.096C203.943 220.496 202.617 219.613 201.5 218.5L190.2 207.2C187.946 204.946 186.679 201.888 186.679 198.7C186.679 195.512 187.946 192.454 190.2 190.2C192.454 187.946 195.512 186.679 198.7 186.679C201.888 186.679 204.946 187.946 207.2 190.2L218.5 201.5ZM140 228V244C140 247.183 138.736 250.235 136.485 252.485C134.235 254.736 131.183 256 128 256C124.817 256 121.765 254.736 119.515 252.485C117.264 250.235 116 247.183 116 244V228C116 224.817 117.264 221.765 119.515 219.515C121.765 217.264 124.817 216 128 216C131.183 216 134.235 217.264 136.485 219.515C138.736 221.765 140 224.817 140 228ZM65.8 190.2C66.9187 191.315 67.8064 192.64 68.412 194.098C69.0177 195.557 69.3295 197.121 69.3295 198.7C69.3295 200.279 69.0177 201.843 68.412 203.302C67.8064 204.76 66.9187 206.085 65.8 207.2L54.5 218.5C53.3827 219.613 52.0569 220.496 50.5984 221.096C49.1399 221.697 47.5773 222.004 46 222C44.4195 222.027 42.8502 221.73 41.3885 221.128C39.9268 220.526 38.6036 219.632 37.5 218.5C36.3813 217.385 35.4936 216.06 34.888 214.602C34.2823 213.143 33.9705 211.579 33.9705 210C33.9705 208.421 34.2823 206.857 34.888 205.398C35.4936 203.94 36.3813 202.615 37.5 201.5L48.8 190.2C49.9148 189.081 51.2396 188.194 52.6982 187.588C54.1568 186.982 55.7206 186.671 57.3 186.671C58.8794 186.671 60.4432 186.982 61.9018 187.588C63.3604 188.194 64.6852 189.081 65.8 190.2ZM28 140H12C8.8174 140 5.76516 138.736 3.51472 136.485C1.26428 134.235 0 131.183 0 128C0 124.817 1.26428 121.765 3.51472 119.515C5.76516 117.264 8.8174 116 12 116H28C31.1826 116 34.2348 117.264 36.4853 119.515C38.7357 121.765 40 124.817 40 128C40 131.183 38.7357 134.235 36.4853 136.485C34.2348 138.736 31.1826 140 28 140ZM37.5 54.5C35.2457 52.2457 33.9792 49.1881 33.9792 46C33.9792 42.8119 35.2457 39.7543 37.5 37.5C39.7543 35.2457 42.8119 33.9792 46 33.9792C49.1881 33.9792 52.2457 35.2457 54.5 37.5L65.8 48.8C66.9187 49.9148 67.8064 51.2396 68.412 52.6982C69.0177 54.1568 69.3295 55.7206 69.3295 57.3C69.3295 58.8794 69.0177 60.4432 68.412 61.9018C67.8064 63.3604 66.9187 64.6852 65.8 65.8C63.5314 68.0303 60.4813 69.2862 57.3 69.3C55.7227 69.3039 54.1601 68.9967 52.7016 68.3962C51.2431 67.7956 49.9173 66.9134 48.8 65.8L37.5 54.5Z" fill="black"/>
</svg>
